<svg width="64" height="65" viewBox="0 0 64 65" fill="none" xmlns="http://www.w3.org/2000/svg">
<rect x="0.5" y="1.35547" width="63" height="63" rx="3.5" fill="white"/>
<rect x="0.5" y="1.35547" width="63" height="63" rx="3.5" stroke="#F6F8FB"/>
<path d="M28.6665 38.6889V34.0222M28.6665 34.0222C29.4602 34.0222 31.5237 34.0222 33.4283 34.0222C34.6188 34.0222 36.9998 34.0222 36.9998 30.5222C36.9998 27.0222 34.6188 27.0222 33.4283 27.0222H28.6665V34.0222Z" stroke="#FFC93F" stroke-opacity="0.5" stroke-width="2.5" stroke-linecap="round" stroke-linejoin="round"/>
<path d="M32.0002 49.5221C41.2049 49.5221 48.6668 42.0601 48.6668 32.8554C48.6668 23.6506 41.2049 16.1887 32.0002 16.1887C22.7954 16.1887 15.3335 23.6506 15.3335 32.8554C15.3335 42.0601 22.7954 49.5221 32.0002 49.5221Z" stroke="#FFC93F" stroke-opacity="0.5" stroke-width="2.5"/>
</svg>
