<svg width="64" height="65" viewBox="0 0 64 65" fill="none" xmlns="http://www.w3.org/2000/svg">
<rect x="0.5" y="1.35547" width="63" height="63" rx="3.5" fill="white"/>
<rect x="0.5" y="1.35547" width="63" height="63" rx="3.5" stroke="#F6F8FB"/>
<path d="M32 27.8554C32 26.1887 33.1905 24.5221 35.5715 24.5221C38.2013 24.5221 40.3333 22.3901 40.3333 19.7602V18.6887" stroke="#FFC93F" stroke-opacity="0.5" stroke-width="2.5" stroke-linecap="round" stroke-linejoin="round"/>
<path d="M25.3335 27.8555V27.0221C25.3335 24.2607 27.5721 22.0221 30.3335 22.0221C32.1745 22.0221 33.6668 20.5298 33.6668 18.6888V17.8555" stroke="#FFC93F" stroke-opacity="0.5" stroke-width="2.5" stroke-linecap="round" stroke-linejoin="round"/>
<path fill-rule="evenodd" clip-rule="evenodd" d="M18.25 37.8551V32.4385H38.6665H39.0833V37.8551C39.0833 42.6876 35.1658 46.6051 30.3333 46.6051H27C22.1675 46.6051 18.25 42.6876 18.25 37.8551ZM41.5833 32.4385V37.8551C41.5833 37.9946 41.5808 38.1335 41.5758 38.2718H42.8332C44.444 38.2718 45.7498 36.966 45.7498 35.3551C45.7498 33.7443 44.444 32.4385 42.8332 32.4385H41.5833ZM41.2016 40.7718C39.9168 45.5711 35.5378 49.1051 30.3333 49.1051H27C20.7868 49.1051 15.75 44.0683 15.75 37.8551V32.1885C15.75 30.9457 16.7574 29.9385 18 29.9385H38.6665H39.3333H42.8332C45.8247 29.9385 48.2498 32.3636 48.2498 35.3551C48.2498 38.3467 45.8247 40.7718 42.8332 40.7718H41.2016Z" fill="#FFC93F" fill-opacity="0.5"/>
</svg>
