<svg width="24" height="25" viewBox="0 0 24 25" fill="none" xmlns="http://www.w3.org/2000/svg">
<path d="M12 15.2207C13.6569 15.2207 15 13.8776 15 12.2207C15 10.5638 13.6569 9.2207 12 9.2207C10.3431 9.2207 9 10.5638 9 12.2207C9 13.8776 10.3431 15.2207 12 15.2207Z" stroke="#9999B8" stroke-width="1.5" stroke-linecap="round" stroke-linejoin="round"/>
<path d="M19.6224 10.6161L18.5247 7.9655L20 6.2207L18 4.2207L16.2647 5.70365L13.5578 4.59044L12.9353 2.2207H10.981L10.3491 4.62183L7.70441 5.73666L6 4.2207L4 6.2207L5.45337 8.00955L4.3725 10.667L2 11.2207V13.2207L4.40111 13.8762L5.51575 16.5204L4 18.2207L6 20.2207L7.79116 18.761L10.397 19.833L11 22.2207H13L13.6045 19.8339L16.2551 18.7362C16.6969 19.052 18 20.2207 18 20.2207L20 18.2207L18.5159 16.4701L19.6139 13.8187L21.9999 13.1979L22 11.2207L19.6224 10.6161Z" stroke="#9999B8" stroke-width="1.5" stroke-linecap="round" stroke-linejoin="round"/>
</svg>
