<svg width="64" height="65" viewBox="0 0 64 65" fill="none" xmlns="http://www.w3.org/2000/svg">
<rect x="0.5" y="1.35547" width="63" height="63" rx="3.5" fill="white"/>
<rect x="0.5" y="1.35547" width="63" height="63" rx="3.5" stroke="#F6F8FB"/>
<path d="M35.1667 42.8555H28.8333C28.2811 42.8555 27.8333 42.4078 27.8333 41.8555V38.0221C27.8333 37.4698 27.3856 37.0221 26.8333 37.0221H23C22.4477 37.0221 22 36.5745 22 36.0221V29.6888C22 29.1365 22.4477 28.6888 23 28.6888H26.8333C27.3856 28.6888 27.8333 28.2411 27.8333 27.6888V23.8555C27.8333 23.3032 28.2811 22.8555 28.8333 22.8555H35.1667C35.719 22.8555 36.1667 23.3032 36.1667 23.8555V27.6888C36.1667 28.2411 36.6143 28.6888 37.1667 28.6888H41C41.5523 28.6888 42 29.1365 42 29.6888V36.0221C42 36.5745 41.5523 37.0221 41 37.0221H37.1667C36.6143 37.0221 36.1667 37.4698 36.1667 38.0221V41.8555C36.1667 42.4078 35.719 42.8555 35.1667 42.8555Z" stroke="#FFC93F" stroke-opacity="0.5" stroke-width="2.5"/>
<path d="M32.0002 49.5221C41.2048 49.5221 48.6668 42.0601 48.6668 32.8554C48.6668 23.6506 41.2048 16.1887 32.0002 16.1887C22.7954 16.1887 15.3335 23.6506 15.3335 32.8554C15.3335 42.0601 22.7954 49.5221 32.0002 49.5221Z" stroke="#FFC93F" stroke-opacity="0.5" stroke-width="2.5" stroke-linecap="round" stroke-linejoin="round"/>
</svg>
