<svg width="64" height="65" viewBox="0 0 64 65" fill="none" xmlns="http://www.w3.org/2000/svg">
<rect x="0.5" y="1.35547" width="63" height="63" rx="3.5" fill="white"/>
<rect x="0.5" y="1.35547" width="63" height="63" rx="3.5" stroke="#F6F8FB"/>
<path d="M16.9999 29.5221V44.5221C16.9999 46.3631 18.4923 47.8555 20.3332 47.8555H43.6666C45.5076 47.8555 46.9999 46.3631 46.9999 44.5221V29.5221M36.7221 47.8555V37.8555C36.7221 36.0145 35.2297 34.5221 33.3887 34.5221H30.0554C28.2145 34.5221 26.7221 36.0145 26.7221 37.8555V47.8555M37.8332 17.8555H44.5789C45.0254 17.8555 45.4177 18.1515 45.5404 18.5808L48.3637 28.4624C48.5261 29.0303 48.1636 29.6098 47.5774 29.6818C46.1679 29.8551 43.6929 30.043 41.9999 29.5221C41.0086 29.2171 39.7374 28.5004 39.0886 28.1137C38.8204 27.9539 38.6514 27.6729 38.6254 27.3618L37.8332 17.8555ZM37.8332 17.8555L38.6164 27.2539C38.6472 27.6239 38.4712 27.9802 38.1514 28.1689C37.4797 28.5653 36.2791 29.2311 35.3332 29.5221C32.8449 30.2878 31.1549 30.2878 28.6666 29.5221C27.7207 29.2311 26.52 28.5653 25.8483 28.1689C25.5286 27.9802 25.3525 27.6239 25.3834 27.2539L26.1666 17.8555M37.8332 17.8555H26.1666M26.1666 17.8555L25.3744 27.3618C25.3484 27.6729 25.1793 27.9539 24.9112 28.1137C24.2624 28.5004 22.9912 29.2171 21.9999 29.5221C20.307 30.043 17.8318 29.8551 16.4224 29.6818C15.8362 29.6098 15.4737 29.0303 15.636 28.4624L18.4593 18.5808C18.582 18.1515 18.9744 17.8555 19.4209 17.8555H26.1666Z" stroke="#FFC93F" stroke-opacity="0.5" stroke-width="2.5"/>
</svg>
