<svg width="64" height="65" viewBox="0 0 64 65" fill="none" xmlns="http://www.w3.org/2000/svg">
<rect x="0.5" y="1.35547" width="63" height="63" rx="3.5" fill="white"/>
<rect x="0.5" y="1.35547" width="63" height="63" rx="3.5" stroke="#F6F8FB"/>
<path fill-rule="evenodd" clip-rule="evenodd" d="M14.0835 32.8551C14.0835 22.96 22.1051 14.9385 32.0002 14.9385C41.8952 14.9385 49.9168 22.96 49.9168 32.8551C49.9168 40.1879 45.5116 46.4919 39.2033 49.265C39.1792 49.2764 39.1547 49.2871 39.1298 49.2971C36.9449 50.2458 34.534 50.7718 32.0002 50.7718C29.4662 50.7718 27.0551 50.2458 24.8701 49.2969C24.8455 49.2871 24.8212 49.2765 24.7974 49.2652C18.4889 46.4922 14.0835 40.1881 14.0835 32.8551ZM47.4168 32.8551C47.4168 38.475 44.4097 43.3926 39.9168 46.0866V36.1891C39.9168 35.9716 39.8601 35.7578 39.7521 35.569L33.0855 23.9023C32.8629 23.5128 32.4487 23.2725 32.0002 23.2725C31.5516 23.2725 31.1374 23.5128 30.9149 23.9023L24.2482 35.569C24.1403 35.7578 24.0835 35.9716 24.0835 36.1891V46.0866C19.5906 43.3926 16.5835 38.475 16.5835 32.8551C16.5835 24.3407 23.4858 17.4385 32.0002 17.4385C40.5145 17.4385 47.4168 24.3408 47.4168 32.8551ZM32.0002 48.2718C30.094 48.2718 28.2687 47.9259 26.5835 47.2934V38.6966C27.1672 38.9772 27.8574 39.2116 28.5543 39.2116C29.6699 39.2116 30.7684 38.611 31.4402 38.1813C31.6007 38.0786 31.7509 37.9763 31.8876 37.8792C32.0243 37.9763 32.1745 38.0786 32.335 38.1813C33.0068 38.611 34.1053 39.2116 35.2209 39.2116C36.0097 39.2116 36.7899 38.9114 37.4168 38.5836V47.2933C35.7316 47.9259 33.9063 48.2718 32.0002 48.2718ZM37.0507 35.8804L32.0002 27.0419L26.8864 35.991C26.9284 36.019 26.9715 36.0472 27.0154 36.0752C27.6464 36.4789 28.2145 36.7116 28.5543 36.7116C28.894 36.7116 29.4621 36.4789 30.0931 36.0752C30.3763 35.8941 30.6229 35.7109 30.799 35.5726C30.8864 35.5039 30.9547 35.4476 30.9996 35.4098C31.022 35.391 31.0384 35.3769 31.0483 35.3683L31.0582 35.3597C31.5312 34.9403 32.2427 34.94 32.716 35.3588L32.7168 35.3596L32.7269 35.3683C32.7368 35.3769 32.7532 35.391 32.7756 35.4098C32.8205 35.4476 32.8888 35.5039 32.9762 35.5726C33.1523 35.7109 33.3989 35.8941 33.6821 36.0752C34.3131 36.4789 34.8812 36.7116 35.2209 36.7116C35.5607 36.7116 36.1288 36.4789 36.7598 36.0752C36.8621 36.0098 36.9596 35.9441 37.0507 35.8804Z" fill="#FFC93F" fill-opacity="0.5"/>
</svg>
