<svg width="41" height="41" viewBox="0 0 41 41" fill="none" xmlns="http://www.w3.org/2000/svg">
<path fill-rule="evenodd" clip-rule="evenodd" d="M20.4997 31.1656C18.1816 31.163 15.9593 30.241 14.3202 28.6018C12.681 26.9627 11.759 24.7404 11.7564 22.4223C11.7586 20.1039 12.6804 17.8811 14.3196 16.2417C15.9587 14.6022 18.1813 13.6799 20.4997 13.6773C22.8181 13.6799 25.0407 14.6022 26.6798 16.2417C28.319 17.8811 29.2408 20.1039 29.243 22.4223C29.2404 24.7404 28.3184 26.9627 26.6792 28.6018C25.0401 30.241 22.8178 31.163 20.4997 31.1656ZM34.0214 9.28063H29.098L27.243 5.66562C26.9489 5.09334 26.5027 4.61323 25.9534 4.27803C25.4042 3.94284 24.7732 3.76554 24.1297 3.76563H16.7747C16.1186 3.76555 15.4757 3.94989 14.9193 4.29763C14.3629 4.64537 13.9155 5.14249 13.628 5.73229L11.9014 9.28063H6.97803C6.42634 9.28041 5.88001 9.38888 5.37025 9.59985C4.86049 9.81082 4.39729 10.1202 4.00711 10.5102C3.61693 10.9002 3.30741 11.3633 3.09623 11.873C2.88506 12.3826 2.77637 12.9289 2.77637 13.4806V32.8156C2.77637 33.3673 2.88506 33.9136 3.09623 34.4233C3.30741 34.933 3.61693 35.396 4.00711 35.7861C4.39729 36.1761 4.86049 36.4854 5.37025 36.6964C5.88001 36.9074 6.42634 37.0158 6.97803 37.0156H34.0214C34.5731 37.0158 35.1194 36.9074 35.6292 36.6964C36.1389 36.4854 36.6021 36.1761 36.9923 35.7861C37.3825 35.396 37.692 34.933 37.9032 34.4233C38.1143 33.9136 38.223 33.3673 38.223 32.8156V13.4806C38.223 12.9289 38.1143 12.3826 37.9032 11.873C37.692 11.3633 37.3825 10.9002 36.9923 10.5102C36.6021 10.1202 36.1389 9.81082 35.6292 9.59985C35.1194 9.38888 34.5731 9.28041 34.0214 9.28063Z" fill="white"/>
<path fill-rule="evenodd" clip-rule="evenodd" d="M20.4999 16.8271C19.0171 16.8289 17.5956 17.4188 16.5473 18.4674C15.499 19.5161 14.9095 20.9377 14.9082 22.4205C14.9091 23.9034 15.4984 25.3253 16.5468 26.374C17.5952 27.4227 19.017 28.0125 20.4999 28.0138C21.9828 28.0125 23.4045 27.4227 24.4529 26.374C25.5013 25.3253 26.0907 23.9034 26.0915 22.4205C26.0902 20.9377 25.5007 19.5161 24.4524 18.4674C23.4041 17.4188 21.9826 16.8289 20.4999 16.8271Z" fill="white"/>
</svg>
