<svg width="64" height="65" viewBox="0 0 64 65" fill="none" xmlns="http://www.w3.org/2000/svg">
<rect width="64" height="64" transform="translate(0 0.855469)" fill="white"/>
<path d="M31.8017 24.4376C33.9421 24.4376 35.6772 22.3369 35.6772 19.7457C35.6772 17.1544 33.9421 15.0537 31.8017 15.0537C29.6614 15.0537 27.9263 17.1544 27.9263 19.7457C27.9263 22.3369 29.6614 24.4376 31.8017 24.4376Z" fill="white"/>
<path fill-rule="evenodd" clip-rule="evenodd" d="M31.8017 16.0537C30.384 16.0537 28.9263 17.5193 28.9263 19.7457C28.9263 21.9721 30.384 23.4376 31.8017 23.4376C33.2194 23.4376 34.6772 21.9721 34.6772 19.7457C34.6772 17.5193 33.2194 16.0537 31.8017 16.0537ZM26.9263 19.7457C26.9263 16.7895 28.9387 14.0537 31.8017 14.0537C34.6647 14.0537 36.6772 16.7895 36.6772 19.7457C36.6772 22.7018 34.6647 25.4376 31.8017 25.4376C28.9387 25.4376 26.9263 22.7018 26.9263 19.7457Z" fill="#FFE49E"/>
<path d="M51.3474 27.8931C53.2528 27.8931 54.7974 26.3485 54.7974 24.4431C54.7974 22.5378 53.2528 20.9932 51.3474 20.9932C49.4421 20.9932 47.8975 22.5378 47.8975 24.4431C47.8975 26.3485 49.4421 27.8931 51.3474 27.8931Z" fill="white"/>
<path fill-rule="evenodd" clip-rule="evenodd" d="M51.3474 21.9932C49.9943 21.9932 48.8975 23.09 48.8975 24.4431C48.8975 25.7962 49.9943 26.8931 51.3474 26.8931C52.7005 26.8931 53.7974 25.7962 53.7974 24.4431C53.7974 23.09 52.7005 21.9932 51.3474 21.9932ZM46.8975 24.4431C46.8975 21.9855 48.8898 19.9932 51.3474 19.9932C53.8051 19.9932 55.7974 21.9855 55.7974 24.4431C55.7974 26.9008 53.8051 28.8931 51.3474 28.8931C48.8898 28.8931 46.8975 26.9008 46.8975 24.4431Z" fill="#FFE49E"/>
<path d="M12.6526 27.8931C14.558 27.8931 16.1026 26.3485 16.1026 24.4431C16.1026 22.5378 14.558 20.9932 12.6526 20.9932C10.7472 20.9932 9.20264 22.5378 9.20264 24.4431C9.20264 26.3485 10.7472 27.8931 12.6526 27.8931Z" fill="white"/>
<path fill-rule="evenodd" clip-rule="evenodd" d="M12.6526 21.9932C11.2995 21.9932 10.2026 23.09 10.2026 24.4431C10.2026 25.7962 11.2995 26.8931 12.6526 26.8931C14.0057 26.8931 15.1026 25.7962 15.1026 24.4431C15.1026 23.09 14.0057 21.9932 12.6526 21.9932ZM8.20264 24.4431C8.20264 21.9855 10.1949 19.9932 12.6526 19.9932C15.1102 19.9932 17.1026 21.9855 17.1026 24.4431C17.1026 26.9008 15.1102 28.8931 12.6526 28.8931C10.1949 28.8931 8.20264 26.9008 8.20264 24.4431Z" fill="#FFE49E"/>
<path d="M31.101 44.3325C31.308 40.3075 29.8188 40.8825 28.2376 40.8825C26.6563 40.8825 25.1038 37.4326 25.3741 44.3325C25.4488 46.2357 25.5811 50.6574 28.2376 50.6574C31.5783 50.6574 31.0033 46.2357 31.101 44.3325Z" fill="white"/>
<path fill-rule="evenodd" clip-rule="evenodd" d="M27.5951 39.5911C27.9929 39.8269 28.1575 39.8825 28.2376 39.8825C28.3949 39.8825 28.5522 39.876 28.7303 39.8686C28.7474 39.8679 28.7647 39.8672 28.7822 39.8665C28.972 39.8587 29.1897 39.8504 29.4063 39.8559C29.8298 39.8665 30.3848 39.9293 30.8911 40.2637C31.4239 40.6156 31.7518 41.1641 31.9302 41.8401C32.1035 42.4962 32.1538 43.3326 32.0998 44.3838C32.0863 44.6466 32.0867 44.9304 32.0872 45.2651C32.0875 45.5225 32.0879 45.81 32.0821 46.1413C32.0697 46.8424 32.0269 47.65 31.8636 48.4169C31.7018 49.1763 31.4031 49.9897 30.8095 50.6215C30.1841 51.2871 29.32 51.6574 28.2376 51.6574C27.2516 51.6574 26.4805 51.2299 25.9261 50.5937C25.4003 49.9903 25.0807 49.217 24.8745 48.4772C24.4788 47.0577 24.4158 45.4283 24.3792 44.4825C24.3778 44.4444 24.3763 44.4075 24.3749 44.3717L24.3749 44.3716C24.3071 42.6407 24.347 41.4572 24.5055 40.6822C24.5837 40.2997 24.7112 39.9062 24.9573 39.592C25.2469 39.2224 25.6574 39.02 26.1116 39.02C26.4867 39.02 26.8094 39.1598 27.009 39.2585C27.1825 39.3444 27.3669 39.4547 27.5133 39.5423C27.5422 39.5595 27.5696 39.5759 27.5951 39.5911ZM26.3734 44.2933C26.3741 44.3107 26.3748 44.3282 26.3755 44.3458C26.4138 45.323 26.4697 46.7516 26.801 47.9401C26.9693 48.5436 27.1855 48.9947 27.434 49.2798C27.6539 49.5322 27.8954 49.6574 28.2376 49.6574C28.8257 49.6574 29.1424 49.475 29.3519 49.252C29.5931 48.9953 29.7831 48.5843 29.9074 48.0004C30.0302 47.4239 30.0707 46.7692 30.0824 46.106C30.0866 45.8696 30.0867 45.6127 30.0868 45.3583C30.087 44.9645 30.0872 44.5768 30.1024 44.2812L30.1024 44.2811C30.1519 43.3198 30.0937 42.7188 29.9965 42.3507C29.9063 42.009 29.804 41.9425 29.7896 41.933C29.7893 41.9328 29.789 41.9327 29.7888 41.9325C29.751 41.9076 29.6501 41.8626 29.3562 41.8552C29.214 41.8517 29.0576 41.8569 28.8641 41.8648C28.8463 41.8656 28.828 41.8663 28.8095 41.8671C28.6377 41.8742 28.4388 41.8825 28.2376 41.8825C27.5379 41.8825 26.9235 41.5181 26.5903 41.3204C26.5852 41.3174 26.5801 41.3144 26.5751 41.3114C26.5341 41.2871 26.4963 41.2646 26.4611 41.2436C26.4534 41.239 26.4458 41.2344 26.4383 41.23C26.3506 41.7779 26.312 42.725 26.3734 44.2932" fill="#FFE49E"/>
<path d="M32.8138 44.3325C32.6068 40.3075 34.096 40.8825 35.6772 40.8825C37.2585 40.8825 38.8109 37.4326 38.5407 44.3325C38.4659 46.2357 38.3337 50.6574 35.6772 50.6574C32.3365 50.6574 32.9115 46.2357 32.8138 44.3325Z" fill="white"/>
<path fill-rule="evenodd" clip-rule="evenodd" d="M37.3246 41.3204C36.9914 41.5181 36.377 41.8825 35.6773 41.8825C35.4761 41.8825 35.2772 41.8742 35.1054 41.8671C35.0869 41.8663 35.0686 41.8656 35.0508 41.8648C34.8573 41.8569 34.7009 41.8517 34.5587 41.8552C34.2648 41.8626 34.1639 41.9076 34.1261 41.9325C34.1259 41.9327 34.1256 41.9328 34.1253 41.933C34.1108 41.9425 34.0086 42.009 33.9184 42.3507C33.8212 42.7188 33.763 43.3198 33.8125 44.2811L33.8125 44.2812C33.8277 44.5768 33.8279 44.9645 33.8281 45.3583C33.8282 45.6127 33.8283 45.8696 33.8325 46.106C33.8442 46.7692 33.8847 47.4239 34.0075 48.0004C34.1318 48.5843 34.3218 48.9953 34.563 49.252C34.7725 49.475 35.0892 49.6574 35.6773 49.6574C36.0195 49.6574 36.261 49.5322 36.4809 49.2798C36.7293 48.9947 36.9456 48.5436 37.1139 47.9401C37.4452 46.7516 37.5011 45.323 37.5394 44.3458C37.5401 44.3282 37.5408 44.3107 37.5415 44.2933M37.3246 41.3204C37.3297 41.3174 37.3348 41.3144 37.3397 41.3114L37.3246 41.3204ZM37.3397 41.3114C37.3808 41.2871 37.4186 41.2646 37.4538 41.2436L37.3397 41.3114ZM37.4538 41.2436C37.4615 41.239 37.4691 41.2344 37.4766 41.23L37.4538 41.2436ZM37.4766 41.23C37.5643 41.7779 37.6029 42.725 37.5415 44.2932L37.4766 41.23ZM39.4094 40.6822C39.5679 41.4572 39.6078 42.6407 39.54 44.3716L39.54 44.3717C39.5385 44.4075 39.5371 44.4444 39.5357 44.4825C39.4991 45.4283 39.4361 47.0577 39.0404 48.4772C38.8342 49.217 38.5146 49.9903 37.9888 50.5937C37.4344 51.2299 36.6633 51.6574 35.6773 51.6574C34.5949 51.6574 33.7308 51.2871 33.1054 50.6215C32.5118 49.9897 32.2131 49.1763 32.0513 48.4169C31.888 47.65 31.8452 46.8424 31.8328 46.1413C31.827 45.81 31.8274 45.5225 31.8277 45.2651C31.8282 44.9304 31.8286 44.6466 31.8151 44.3838M39.4094 40.6822C39.3312 40.2997 39.2037 39.9062 38.9576 39.592L39.4094 40.6822ZM38.9576 39.592C38.668 39.2224 38.2575 39.02 37.8033 39.02L38.9576 39.592ZM37.8033 39.02C37.4282 39.02 37.1055 39.1598 36.9059 39.2585L37.8033 39.02ZM36.9059 39.2585C36.7324 39.3444 36.548 39.4547 36.4016 39.5423L36.9059 39.2585ZM36.4016 39.5423C36.3727 39.5595 36.3453 39.5759 36.3198 39.5911L36.4016 39.5423ZM36.3198 39.5911C35.922 39.8269 35.7574 39.8825 35.6773 39.8825L36.3198 39.5911ZM35.6773 39.8825C35.52 39.8825 35.3627 39.876 35.1846 39.8686L35.6773 39.8825ZM35.1846 39.8686C35.1675 39.8679 35.1502 39.8672 35.1327 39.8665L35.1846 39.8686ZM35.1327 39.8665C34.9429 39.8587 34.7252 39.8504 34.5086 39.8559L35.1327 39.8665ZM34.5086 39.8559C34.0851 39.8665 33.5301 39.9293 33.0238 40.2637L34.5086 39.8559ZM33.0238 40.2637C32.491 40.6156 32.1631 41.1641 31.9847 41.8401L33.0238 40.2637ZM31.9847 41.8401C31.8114 42.4962 31.7611 43.3326 31.8151 44.3838L31.9847 41.8401Z" fill="#FFE49E"/>
<mask id="mask0_3380_6895" style="mask-type:luminance" maskUnits="userSpaceOnUse" x="13" y="17" width="19" height="30">
<path d="M14.6104 45.0343V18.8481H30.8934V45.0343H14.6104Z" fill="white" stroke="white" stroke-width="2"/>
</mask>
<g mask="url(#mask0_3380_6895)">
<path d="M37.5359 45.4588C34.6605 45.4588 31.839 45.062 29.1577 44.28C22.862 42.4401 18.0875 38.8176 15.7084 34.0797C14.0792 30.8252 13.7069 27.335 14.6726 24.2473C15.552 21.4356 19.2582 18.4226 23.3691 18.4226C26.4657 18.4226 29.4544 20.0728 32.017 23.1951L32.0763 23.2698L60.2751 28.8702C60.4262 28.9507 61.0358 29.2727 61.3541 29.4452C58.4031 40.5023 47.2897 45.4588 37.5305 45.4588H37.5359Z" fill="white"/>
<path fill-rule="evenodd" clip-rule="evenodd" d="M32.0763 23.2698L32.017 23.1951C29.4544 20.0728 26.4657 18.4226 23.3691 18.4226C19.2582 18.4226 15.552 21.4356 14.6726 24.2473C13.7069 27.335 14.0792 30.8252 15.7084 34.0797C18.0875 38.8176 22.862 42.4401 29.1577 44.28C31.8373 45.0615 34.6569 45.4583 37.5305 45.4588C37.5323 45.4588 37.5341 45.4588 37.5359 45.4588C47.2938 45.457 58.4036 40.5003 61.3541 29.4452C61.1147 29.3155 60.7105 29.1012 60.4605 28.9686C60.3782 28.925 60.3125 28.8902 60.2751 28.8702L32.0763 23.2698ZM58.8763 30.6315L30.9665 25.0884L30.461 24.4517C28.1565 21.649 25.6913 20.4226 23.3691 20.4226C21.7967 20.4226 20.2401 21.0041 18.9696 21.9094C17.6747 22.832 16.8585 23.9582 16.5814 24.8443C15.7911 27.3715 16.0665 30.3266 17.4963 33.1833C19.5697 37.3114 23.8214 40.6368 29.7188 42.3603C32.2123 43.0875 34.8446 43.4588 37.5359 43.4588M58.8763 30.6315C55.6083 39.3098 46.2449 43.4588 37.5305 43.4588L58.8763 30.6315Z" fill="#FFE49E"/>
<mask id="path-14-inside-1_3380_6895" fill="white">
<path d="M23.3692 18.7098C26.3849 18.7098 29.3035 20.3255 31.8121 23.3845L31.9362 23.5339L32.1196 23.5684L60.1943 29.1459C60.2375 29.1746 60.2806 29.1976 60.3238 29.2149L60.7716 29.4506C60.8633 29.4966 60.9496 29.5484 61.0359 29.5886C59.7034 34.3553 56.6931 38.3285 52.3125 41.1057C48.1746 43.722 42.9255 45.1652 37.536 45.1652C34.6822 45.1652 31.8876 44.7742 29.228 43.9922C23.0024 42.1752 18.2873 38.6045 15.9459 33.9356C14.349 30.7501 13.9876 27.3404 14.9317 24.3274C15.3363 23.028 16.4315 21.6307 17.8611 20.5785C19.5011 19.371 21.4594 18.704 23.3692 18.704M23.3692 18.1348C18.9347 18.1348 15.277 21.4007 14.4192 24.1549C12.2613 31.0549 16.5232 40.8872 29.0877 44.5557C31.8121 45.3492 34.6768 45.7459 37.536 45.7459C48.2609 45.7459 58.9049 40.1858 61.6779 29.2954L60.3615 28.5996L32.2167 23.0107C29.2927 19.4457 26.1691 18.1405 23.3638 18.1405L23.3692 18.1348Z"/>
</mask>
<path d="M23.3692 18.7098C26.3849 18.7098 29.3035 20.3255 31.8121 23.3845L31.9362 23.5339L32.1196 23.5684L60.1943 29.1459C60.2375 29.1746 60.2806 29.1976 60.3238 29.2149L60.7716 29.4506C60.8633 29.4966 60.9496 29.5484 61.0359 29.5886C59.7034 34.3553 56.6931 38.3285 52.3125 41.1057C48.1746 43.722 42.9255 45.1652 37.536 45.1652C34.6822 45.1652 31.8876 44.7742 29.228 43.9922C23.0024 42.1752 18.2873 38.6045 15.9459 33.9356C14.349 30.7501 13.9876 27.3404 14.9317 24.3274C15.3363 23.028 16.4315 21.6307 17.8611 20.5785C19.5011 19.371 21.4594 18.704 23.3692 18.704M23.3692 18.1348C18.9347 18.1348 15.277 21.4007 14.4192 24.1549C12.2613 31.0549 16.5232 40.8872 29.0877 44.5557C31.8121 45.3492 34.6768 45.7459 37.536 45.7459C48.2609 45.7459 58.9049 40.1858 61.6779 29.2954L60.3615 28.5996L32.2167 23.0107C29.2927 19.4457 26.1691 18.1405 23.3638 18.1405L23.3692 18.1348Z" fill="white"/>
<path d="M31.8121 23.3845L30.2656 24.6527L30.2731 24.6618L31.8121 23.3845ZM31.9362 23.5339L30.3972 24.8113L30.8578 25.3662L31.5665 25.4995L31.9362 23.5339ZM32.1196 23.5684L32.5093 21.6068L32.4993 21.6048L32.4893 21.6029L32.1196 23.5684ZM60.1943 29.1459L61.3031 27.4814L60.973 27.2615L60.584 27.1842L60.1943 29.1459ZM60.3238 29.2149L61.2555 27.4452L61.1631 27.3965L61.0661 27.3577L60.3238 29.2149ZM60.7716 29.4506L59.8398 31.2203L59.8573 31.2295L59.8749 31.2384L60.7716 29.4506ZM61.0359 29.5886L62.9621 30.1271L63.4188 28.493L61.8811 27.776L61.0359 29.5886ZM52.3125 41.1057L53.3813 42.7962L53.3834 42.7949L52.3125 41.1057ZM29.228 43.9922L29.7921 42.0734L29.7883 42.0723L29.228 43.9922ZM15.9459 33.9356L14.158 34.8319L14.1581 34.8321L15.9459 33.9356ZM14.9317 24.3274L16.8402 24.9255L16.8413 24.922L14.9317 24.3274ZM17.8611 20.5785L19.0466 22.1892L19.0469 22.189L17.8611 20.5785ZM23.3692 18.1348L24.8277 19.5032L27.9882 16.1348H23.3692V18.1348ZM14.4192 24.1549L16.328 24.7519L16.3287 24.7497L14.4192 24.1549ZM29.0877 44.5557L28.5272 46.4755L28.5285 46.4759L29.0877 44.5557ZM61.6779 29.2954L63.6161 29.7889L64.0046 28.263L62.6125 27.5272L61.6779 29.2954ZM60.3615 28.5996L61.2961 26.8314L61.0378 26.6949L60.7511 26.6379L60.3615 28.5996ZM32.2167 23.0107L30.6703 24.2791L31.1246 24.8329L31.8272 24.9724L32.2167 23.0107ZM23.3638 18.1405L21.9053 16.7721L18.7448 20.1405H23.3638V18.1405ZM23.3692 20.7098C25.6107 20.7098 28.0099 21.902 30.2656 24.6527L33.3586 22.1162C30.5972 18.749 27.1591 16.7098 23.3692 16.7098V20.7098ZM30.2731 24.6618L30.3972 24.8113L33.4752 22.2566L33.3511 22.1071L30.2731 24.6618ZM31.5665 25.4995L31.7499 25.534L32.4893 21.6029L32.3059 21.5684L31.5665 25.4995ZM31.7299 25.5301L59.8046 31.1075L60.584 27.1842L32.5093 21.6068L31.7299 25.5301ZM59.0855 30.8104C59.2307 30.9071 59.3959 30.9979 59.5815 31.072L61.0661 27.3577C61.1653 27.3974 61.2443 27.4422 61.3031 27.4814L59.0855 30.8104ZM59.3921 30.9846L59.8398 31.2203L61.7033 27.6809L61.2555 27.4452L59.3921 30.9846ZM59.8749 31.2384C59.8854 31.2436 59.8944 31.2485 59.9539 31.2808C59.9986 31.3049 60.0881 31.3534 60.1907 31.4012L61.8811 27.776C61.8974 27.7836 61.9006 27.7861 61.8576 27.7628C61.8429 27.7549 61.8107 27.7373 61.7828 27.7224C61.7518 27.7058 61.7125 27.6851 61.6682 27.6629L59.8749 31.2384ZM59.1098 29.0502C57.9172 33.316 55.2269 36.89 51.2416 39.4166L53.3834 42.7949C58.1592 39.7671 61.4895 35.3946 62.9621 30.1271L59.1098 29.0502ZM51.2436 39.4153C47.4571 41.8094 42.5861 43.1652 37.536 43.1652V47.1652C43.2648 47.1652 48.8922 45.6345 53.3813 42.7962L51.2436 39.4153ZM37.536 43.1652C34.8649 43.1652 32.2608 42.7993 29.7921 42.0734L28.6638 45.911C31.5145 46.7491 34.4995 47.1652 37.536 47.1652V43.1652ZM29.7883 42.0723C23.9584 40.3708 19.7681 37.0958 17.7337 33.039L14.1581 34.8321C16.8065 40.1132 22.0463 43.9796 28.6677 45.9121L29.7883 42.0723ZM17.7338 33.0393C16.3365 30.2518 16.0718 27.3776 16.8402 24.9255L13.0232 23.7294C11.9034 27.3032 12.3616 31.2484 14.158 34.8319L17.7338 33.0393ZM16.8413 24.922C17.0844 24.1412 17.8528 23.0679 19.0466 22.1892L16.6755 18.9677C15.0101 20.1936 13.5882 21.9147 13.0221 23.7329L16.8413 24.922ZM19.0469 22.189C20.368 21.2163 21.9158 20.704 23.3692 20.704V16.704C21.003 16.704 18.6342 17.5257 16.6753 18.9679L19.0469 22.189ZM23.3692 16.1348C20.6578 16.1348 18.228 17.1309 16.3668 18.5017C14.5339 19.8517 13.0938 21.6846 12.5096 23.5602L16.3287 24.7497C16.6023 23.8711 17.42 22.6939 18.739 21.7224C20.0298 20.7717 21.646 20.1348 23.3692 20.1348V16.1348ZM12.5104 23.558C9.94403 31.7637 15.1432 42.5678 28.5272 46.4755L29.6483 42.6358C17.9031 39.2066 14.5785 30.346 16.328 24.7519L12.5104 23.558ZM28.5285 46.4759C31.4405 47.3241 34.4939 47.7459 37.536 47.7459V43.7459C34.8597 43.7459 32.1837 43.3743 29.647 42.6355L28.5285 46.4759ZM37.536 47.7459C48.8295 47.7459 60.5421 41.8615 63.6161 29.7889L59.7397 28.8019C57.2678 38.51 47.6924 43.7459 37.536 43.7459V47.7459ZM62.6125 27.5272L61.2961 26.8314L59.427 30.3678L60.7433 31.0636L62.6125 27.5272ZM60.7511 26.6379L32.6063 21.049L31.8272 24.9724L59.972 30.5613L60.7511 26.6379ZM33.7631 21.7424C30.5254 17.7949 26.8652 16.1405 23.3638 16.1405V20.1405C25.473 20.1405 28.0601 21.0966 30.6703 24.2791L33.7631 21.7424ZM24.8223 19.509L24.8277 19.5032L21.9107 16.7663L21.9053 16.7721L24.8223 19.509Z" fill="#FFE49E" mask="url(#path-14-inside-1_3380_6895)"/>
</g>
<mask id="mask1_3380_6895" style="mask-type:luminance" maskUnits="userSpaceOnUse" x="31" y="17" width="20" height="30">
<path d="M32.8999 45.0345V18.8484H49.183V45.0345H32.8999Z" fill="white" stroke="white" stroke-width="2"/>
</mask>
<g mask="url(#mask1_3380_6895)">
<path d="M26.2562 45.4588C29.1316 45.4588 31.9531 45.062 34.6343 44.28C40.9301 42.4401 45.7045 38.8176 48.0836 34.0797C49.7129 30.8252 50.0851 27.335 49.1194 24.2473C48.2401 21.4356 44.5338 18.4226 40.423 18.4226C37.3264 18.4226 34.3376 20.0728 31.7751 23.1951L31.7157 23.2698L3.51695 28.8702C3.3659 28.9507 2.75628 29.2727 2.43799 29.4452C5.38896 40.5023 16.5023 45.4588 26.2616 45.4588H26.2562Z" fill="white"/>
<path fill-rule="evenodd" clip-rule="evenodd" d="M26.2616 45.4588C29.1351 45.4583 31.9548 45.0615 34.6343 44.28C40.9301 42.4401 45.7045 38.8176 48.0836 34.0797C49.7129 30.8252 50.0851 27.335 49.1194 24.2473C48.2401 21.4356 44.5338 18.4226 40.423 18.4226C37.3264 18.4226 34.3376 20.0728 31.7751 23.1951L31.7157 23.2698L3.51695 28.8702C3.47947 28.8902 3.41374 28.9251 3.33123 28.9688C3.08126 29.1013 2.67729 29.3155 2.43799 29.4452C5.38842 40.5003 16.4982 45.457 26.2562 45.4588C26.258 45.4588 26.2598 45.4588 26.2616 45.4588ZM4.9158 30.6315L32.8255 25.0884L33.3311 24.4516C35.6356 21.649 38.1007 20.4226 40.423 20.4226C41.9954 20.4226 43.552 21.0041 44.8224 21.9094C46.1173 22.832 46.9335 23.9582 47.2106 24.8443C48.0011 27.3718 47.7255 30.3273 46.2952 33.1844C44.2217 37.312 39.9701 40.637 34.0733 42.3603C31.5806 43.0872 28.9493 43.4585 26.2589 43.4588C17.5453 43.4579 8.1834 39.3089 4.9158 30.6315Z" fill="#FFE49E"/>
<mask id="path-19-inside-2_3380_6895" fill="white">
<path d="M40.4234 18.7098C37.4077 18.7098 34.4891 20.3255 31.9805 23.3845L31.8564 23.5339L31.673 23.5684L3.59832 29.1459C3.55517 29.1746 3.51201 29.1976 3.46885 29.2149L3.02108 29.4506C2.92937 29.4966 2.84305 29.5484 2.75673 29.5886C4.08925 34.3553 7.09957 38.3285 11.4802 41.1057C15.618 43.722 20.8672 45.1652 26.2566 45.1652C29.1105 45.1652 31.905 44.7742 34.5646 43.9922C40.7903 42.1752 45.5054 38.6045 47.8467 33.9356C49.4436 30.7501 49.805 27.3404 48.8609 24.3274C48.4563 23.028 47.3612 21.6307 45.9315 20.5785C44.2915 19.371 42.3332 18.704 40.4234 18.704M40.4234 18.1348C44.858 18.1348 48.5157 21.4007 49.3734 24.1549C51.5314 31.0549 47.2695 40.8872 34.7049 44.5557C31.9805 45.3492 29.1159 45.7459 26.2566 45.7459C15.5317 45.7459 4.89308 40.1858 2.11475 29.2954L3.43108 28.5996L31.5759 23.0107C34.4999 19.4457 37.6235 18.1405 40.4288 18.1405L40.4234 18.1348Z"/>
</mask>
<path d="M40.4234 18.7098C37.4077 18.7098 34.4891 20.3255 31.9805 23.3845L31.8564 23.5339L31.673 23.5684L3.59832 29.1459C3.55517 29.1746 3.51201 29.1976 3.46885 29.2149L3.02108 29.4506C2.92937 29.4966 2.84305 29.5484 2.75673 29.5886C4.08925 34.3553 7.09957 38.3285 11.4802 41.1057C15.618 43.722 20.8672 45.1652 26.2566 45.1652C29.1105 45.1652 31.905 44.7742 34.5646 43.9922C40.7903 42.1752 45.5054 38.6045 47.8467 33.9356C49.4436 30.7501 49.805 27.3404 48.8609 24.3274C48.4563 23.028 47.3612 21.6307 45.9315 20.5785C44.2915 19.371 42.3332 18.704 40.4234 18.704M40.4234 18.1348C44.858 18.1348 48.5157 21.4007 49.3734 24.1549C51.5314 31.0549 47.2695 40.8872 34.7049 44.5557C31.9805 45.3492 29.1159 45.7459 26.2566 45.7459C15.5317 45.7459 4.89308 40.1858 2.11475 29.2954L3.43108 28.5996L31.5759 23.0107C34.4999 19.4457 37.6235 18.1405 40.4288 18.1405L40.4234 18.1348Z" fill="white"/>
<path d="M31.9805 23.3845L33.5195 24.6618L33.527 24.6527L31.9805 23.3845ZM31.8564 23.5339L32.2261 25.4995L32.9348 25.3662L33.3954 24.8113L31.8564 23.5339ZM31.673 23.5684L31.3033 21.6029L31.2933 21.6048L31.2833 21.6068L31.673 23.5684ZM3.59832 29.1459L3.20861 27.1842L2.81961 27.2615L2.48953 27.4814L3.59832 29.1459ZM3.46885 29.2149L2.72657 27.3577L2.62957 27.3965L2.53713 27.4452L3.46885 29.2149ZM3.02108 29.4506L3.91774 31.2384L3.93535 31.2295L3.95279 31.2203L3.02108 29.4506ZM2.75673 29.5886L1.91151 27.776L0.373784 28.493L0.830577 30.1271L2.75673 29.5886ZM11.4802 41.1057L10.4093 42.7949L10.4114 42.7962L11.4802 41.1057ZM34.5646 43.9922L34.0043 42.0723L34.0005 42.0734L34.5646 43.9922ZM47.8467 33.9356L49.6345 34.8321L49.6346 34.8319L47.8467 33.9356ZM48.8609 24.3274L46.9514 24.922L46.9524 24.9255L48.8609 24.3274ZM45.9315 20.5785L44.7458 22.189L44.746 22.1892L45.9315 20.5785ZM40.4234 18.1348V16.1348H35.8069L38.9644 19.5027L40.4234 18.1348ZM49.3734 24.1549L47.4639 24.7497L47.4646 24.7519L49.3734 24.1549ZM34.7049 44.5557L35.2642 46.4759L35.2654 46.4755L34.7049 44.5557ZM2.11475 29.2954L1.18017 27.5272L-0.212612 28.2633L0.176818 29.7898L2.11475 29.2954ZM3.43108 28.5996L3.04154 26.6379L2.75488 26.6949L2.4965 26.8314L3.43108 28.5996ZM31.5759 23.0107L31.9655 24.9724L32.668 24.8329L33.1223 24.2791L31.5759 23.0107ZM40.4288 18.1405V20.1405H45.0454L41.8879 16.7726L40.4288 18.1405ZM40.4234 16.7098C36.6335 16.7098 33.1955 18.749 30.434 22.1162L33.527 24.6527C35.7828 21.902 38.1819 20.7098 40.4234 20.7098V16.7098ZM30.4415 22.1071L30.3175 22.2566L33.3954 24.8113L33.5195 24.6618L30.4415 22.1071ZM31.4868 21.5684L31.3033 21.6029L32.0427 25.534L32.2261 25.4995L31.4868 21.5684ZM31.2833 21.6068L3.20861 27.1842L3.98804 31.1075L32.0627 25.5301L31.2833 21.6068ZM2.48953 27.4814C2.54837 27.4422 2.62731 27.3974 2.72657 27.3577L4.21112 31.072C4.3967 30.9979 4.56196 30.9071 4.70712 30.8104L2.48953 27.4814ZM2.53713 27.4452L2.08936 27.6809L3.95279 31.2203L4.40056 30.9846L2.53713 27.4452ZM2.12441 27.6629C2.08014 27.6851 2.0408 27.7058 2.00984 27.7224C1.98192 27.7373 1.94969 27.7549 1.93505 27.7628C1.89206 27.7861 1.89528 27.7836 1.91151 27.776L3.60195 31.4012C3.7045 31.3534 3.79404 31.3049 3.83871 31.2808C3.89824 31.2485 3.9072 31.2436 3.91774 31.2384L2.12441 27.6629ZM0.830577 30.1271C2.3031 35.3946 5.6334 39.7671 10.4093 42.7949L12.5511 39.4166C8.56574 36.89 5.8754 33.316 4.68288 29.0502L0.830577 30.1271ZM10.4114 42.7962C14.9005 45.6345 20.5278 47.1652 26.2566 47.1652V43.1652C21.2065 43.1652 16.3355 41.8094 12.549 39.4153L10.4114 42.7962ZM26.2566 47.1652C29.2932 47.1652 32.2782 46.7491 35.1288 45.911L34.0005 42.0734C31.5318 42.7993 28.9278 43.1652 26.2566 43.1652V47.1652ZM35.125 45.9121C41.7463 43.9796 46.9862 40.1132 49.6345 34.8321L46.0589 33.039C44.0245 37.0958 39.8343 40.3708 34.0043 42.0723L35.125 45.9121ZM49.6346 34.8319C51.431 31.2484 51.8893 27.3032 50.7694 23.7294L46.9524 24.9255C47.7208 27.3776 47.4561 30.2518 46.0588 33.0393L49.6346 34.8319ZM50.7705 23.7329C50.2044 21.9147 48.7826 20.1936 47.1171 18.9677L44.746 22.1892C45.9398 23.0679 46.7082 24.1412 46.9514 24.922L50.7705 23.7329ZM47.1173 18.9679C45.1584 17.5257 42.7896 16.704 40.4234 16.704V20.704C41.8768 20.704 43.4246 21.2163 44.7458 22.189L47.1173 18.9679ZM40.4234 20.1348C42.1466 20.1348 43.7629 20.7717 45.0536 21.7224C46.3726 22.6939 47.1903 23.8711 47.4639 24.7497L51.283 23.5602C50.6988 21.6846 49.2588 19.8517 47.4258 18.5017C45.5647 17.1309 43.1348 16.1348 40.4234 16.1348V20.1348ZM47.4646 24.7519C49.2142 30.346 45.8895 39.2066 34.1444 42.6358L35.2654 46.4755C48.6494 42.5678 53.8486 31.7637 51.2823 23.558L47.4646 24.7519ZM34.1456 42.6355C31.6089 43.3743 28.9329 43.7459 26.2566 43.7459V47.7459C29.2988 47.7459 32.3521 47.3241 35.2642 46.4759L34.1456 42.6355ZM26.2566 43.7459C16.1011 43.7459 6.52976 38.5105 4.05267 28.801L0.176818 29.7898C3.2564 41.861 14.9623 47.7459 26.2566 47.7459V43.7459ZM3.04933 31.0636L4.36566 30.3678L2.4965 26.8314L1.18017 27.5272L3.04933 31.0636ZM3.82063 30.5613L31.9655 24.9724L31.1864 21.049L3.04154 26.6379L3.82063 30.5613ZM33.1223 24.2791C35.7326 21.0966 38.3196 20.1405 40.4288 20.1405V16.1405C36.9274 16.1405 33.2672 17.7949 30.0295 21.7424L33.1223 24.2791ZM41.8879 16.7726L41.8825 16.7669L38.9644 19.5027L38.9698 19.5084L41.8879 16.7726Z" fill="#FFE49E" mask="url(#path-19-inside-2_3380_6895)"/>
</g>
<path d="M33.1563 17.8301C32.4863 17.8301 32.4863 18.2801 32.4863 18.8301C32.4863 19.3801 32.4863 19.8301 33.1563 19.8301C33.8263 19.8301 33.8263 19.3801 33.8263 18.8301C33.8263 18.2801 33.8263 17.8301 33.1563 17.8301Z" fill="#FFE49E"/>
<path d="M30.6309 17.8301C29.9609 17.8301 29.9609 18.2801 29.9609 18.8301C29.9609 19.3801 29.9609 19.8301 30.6309 19.8301C31.3009 19.8301 31.3009 19.3801 31.3009 18.8301C31.3009 18.2801 31.3009 17.8301 30.6309 17.8301Z" fill="#FFE49E"/>
</svg>
