<svg width="32" height="32" viewBox="0 0 32 32" fill="none" xmlns="http://www.w3.org/2000/svg">
<path d="M6.66675 28V6.66667C6.66675 5.19391 7.86065 4 9.33341 4H22.6667C24.1395 4 25.3334 5.19391 25.3334 6.66667V28L17.4421 22.9271C16.5637 22.3623 15.4365 22.3623 14.5581 22.9271L6.66675 28Z" fill="#494A69"/>
<path d="M6.66675 28V6.66667C6.66675 5.19391 7.86065 4 9.33341 4H22.6667C24.1395 4 25.3334 5.19391 25.3334 6.66667V28L17.4421 22.9271C16.5637 22.3623 15.4365 22.3623 14.5581 22.9271L6.66675 28Z" fill="url(#paint0_linear_1293_2744)" fill-opacity="0.2"/>
<defs>
<linearGradient id="paint0_linear_1293_2744" x1="6.66675" y1="4" x2="29.2253" y2="23.4969" gradientUnits="userSpaceOnUse">
<stop stop-color="white"/>
<stop offset="1" stop-color="#252536"/>
</linearGradient>
</defs>
</svg>
