<svg width="64" height="65" viewBox="0 0 64 65" fill="none" xmlns="http://www.w3.org/2000/svg">
<rect x="0.5" y="1.35547" width="63" height="63" rx="3.5" fill="white"/>
<rect x="0.5" y="1.35547" width="63" height="63" rx="3.5" stroke="#F6F8FB"/>
<path d="M35.3335 39.5388L35.3502 39.5203" stroke="#FFC93F" stroke-opacity="0.5" stroke-width="2.5" stroke-linecap="round" stroke-linejoin="round"/>
<path d="M28.6665 39.5388L28.6832 39.5203" stroke="#FFC93F" stroke-opacity="0.5" stroke-width="2.5" stroke-linecap="round" stroke-linejoin="round"/>
<path fill-rule="evenodd" clip-rule="evenodd" d="M16.5835 32.8551C16.5835 24.3407 23.4858 17.4385 32.0002 17.4385C40.5145 17.4385 47.4168 24.3408 47.4168 32.8551V37.8551C47.4168 41.7671 44.2455 44.9385 40.3335 44.9385H40.1224C42.0441 43.1858 43.25 40.6616 43.25 37.8558V32.8558C43.25 27.5631 38.9594 23.2725 33.6667 23.2725H30.3333C25.0406 23.2725 20.75 27.5631 20.75 32.8558V37.8558C20.75 40.6616 21.9558 43.1858 23.8776 44.9385H23.6668C19.7548 44.9385 16.5835 41.7671 16.5835 37.8551V32.8551ZM33.7636 44.9385H30.2363C26.369 44.8866 23.25 41.7354 23.25 37.8558V32.8558C23.25 28.9438 26.4213 25.7725 30.3333 25.7725H33.6667C37.5786 25.7725 40.75 28.9438 40.75 32.8558V37.8558C40.75 41.7354 37.6309 44.8866 33.7636 44.9385ZM30.2207 47.4385H30.1006L27.1426 51.136C26.7113 51.6751 25.9247 51.7625 25.3856 51.3312C24.8466 50.9 24.7592 50.1133 25.1904 49.5743L26.8991 47.4385H25.1006L22.1426 51.136C21.7113 51.6751 20.9247 51.7625 20.3856 51.3312C19.8466 50.9 19.7592 50.1133 20.1904 49.5743L22.0128 47.2963C17.5083 46.5126 14.0835 42.5838 14.0835 37.8551V32.8551C14.0835 22.96 22.1051 14.9385 32.0002 14.9385C41.8952 14.9385 49.9168 22.96 49.9168 32.8551V37.8551C49.9168 42.5839 46.4917 46.5128 41.9871 47.2963L43.8094 49.5743C44.2407 50.1133 44.1533 50.9 43.6142 51.3312C43.0751 51.7625 42.2885 51.6751 41.8572 51.136L38.8992 47.4385H37.1008L38.8094 49.5743C39.2407 50.1133 39.1533 50.9 38.6142 51.3312C38.0751 51.7625 37.2885 51.6751 36.8572 51.136L33.8992 47.4385H33.7793C33.7418 47.4389 33.7043 47.4391 33.6667 47.4391H30.3333C30.2957 47.4391 30.2582 47.4389 30.2207 47.4385Z" fill="#FFC93F" fill-opacity="0.5"/>
<path d="M31.6427 29.5222H32.357C34.0007 29.5222 35.3332 30.8547 35.3332 32.4984C35.3332 32.6957 35.1733 32.8556 34.976 32.8556H29.0237C28.8263 32.8556 28.6665 32.6957 28.6665 32.4984C28.6665 30.8547 29.999 29.5222 31.6427 29.5222Z" stroke="#FFC93F" stroke-opacity="0.5" stroke-width="2.5" stroke-linecap="round" stroke-linejoin="round"/>
</svg>
