<svg width="64" height="65" viewBox="0 0 64 65" fill="none" xmlns="http://www.w3.org/2000/svg">
<rect x="0.5" y="1.35547" width="63" height="63" rx="3.5" fill="white"/>
<rect x="0.5" y="1.35547" width="63" height="63" rx="3.5" stroke="#F6F8FB"/>
<path d="M40.3335 46.1888V32.8555C40.3335 32.8555 44.5002 31.1888 44.5002 27.8555C44.5002 24.9265 44.5002 20.3555 44.5002 20.3555" stroke="#FFC93F" stroke-opacity="0.5" stroke-width="2.5" stroke-linecap="round" stroke-linejoin="round"/>
<path d="M40.3335 27.0221V20.3555" stroke="#FFC93F" stroke-opacity="0.5" stroke-width="2.5" stroke-linecap="round" stroke-linejoin="round"/>
<path fill-rule="evenodd" clip-rule="evenodd" d="M19.4997 19.1055C18.9291 19.1055 18.4309 19.4918 18.289 20.0445L19.4997 20.3555C18.289 20.0445 18.2889 20.0447 18.2888 20.045L18.2887 20.0457L18.2882 20.0475L18.2868 20.0531L18.282 20.0719L18.2655 20.1389C18.2515 20.1963 18.2317 20.279 18.2076 20.3842C18.1592 20.5947 18.0932 20.8964 18.02 21.2691C17.8741 22.013 17.6986 23.0478 17.5813 24.2108C17.3539 26.4653 17.3129 29.4742 18.3683 31.7204C19.3447 33.7985 21.4478 35.6215 23.135 36.8599C24.0048 37.4983 24.8179 38.0194 25.4134 38.381C25.5347 38.4547 25.6473 38.522 25.7498 38.5824V44.9388H21.9998C21.3095 44.9388 20.7498 45.4984 20.7498 46.1888C20.7498 46.8792 21.3095 47.4388 21.9998 47.4388H26.9998H31.9998C32.6902 47.4388 33.2498 46.8792 33.2498 46.1888C33.2498 45.4984 32.6902 44.9388 31.9998 44.9388H28.2498V38.5822C28.3522 38.5218 28.4647 38.4546 28.586 38.381C29.1815 38.0194 29.9945 37.4983 30.8644 36.8599C32.5516 35.6215 34.6546 33.7985 35.631 31.7204C36.6865 29.4742 36.6455 26.4653 36.4181 24.2108C36.3008 23.0478 36.1252 22.013 35.9793 21.2691C35.9062 20.8964 35.8401 20.5947 35.7918 20.3842C35.7676 20.279 35.7479 20.1963 35.7339 20.1389L35.7173 20.0719L35.7126 20.0531L35.7112 20.0475L35.7107 20.0457L35.7105 20.045C35.7104 20.0447 35.7104 20.0445 34.4997 20.3555L35.7104 20.0445C35.5684 19.4918 35.0703 19.1055 34.4997 19.1055H19.4997ZM20.4733 21.7504C20.483 21.7006 20.4926 21.6523 20.5021 21.6055H33.4973C33.5067 21.6523 33.5163 21.7006 33.5261 21.7504C33.6613 22.4394 33.8231 23.395 33.9307 24.4617C34.1531 26.6666 34.1121 29.0744 33.3683 30.6572L33.3683 30.6572C32.6782 32.126 31.0313 33.6362 29.3851 34.8445C28.5883 35.4294 27.8388 35.9099 27.2884 36.2441C27.1845 36.3072 27.0879 36.365 26.9997 36.4171C26.9114 36.365 26.8149 36.3072 26.7109 36.2441C26.1606 35.9099 25.4111 35.4294 24.6142 34.8445C22.9681 33.6362 21.3211 32.126 20.631 30.6572L20.631 30.6572C19.8873 29.0744 19.8463 26.6666 20.0687 24.4617C20.1762 23.395 20.3381 22.4394 20.4733 21.7504Z" fill="#FFC93F" fill-opacity="0.5"/>
</svg>
