<svg width="64" height="65" viewBox="0 0 64 65" fill="none" xmlns="http://www.w3.org/2000/svg">
<rect x="0.5" y="1.35547" width="63" height="63" rx="3.5" fill="white"/>
<rect x="0.5" y="1.35547" width="63" height="63" rx="3.5" stroke="#F6F8FB"/>
<path fill-rule="evenodd" clip-rule="evenodd" d="M16.2471 18.3525C16.2471 17.6622 16.8067 17.1025 17.4971 17.1025C20.3593 17.1025 21.9743 18.6579 22.6878 20.0031H46.5024C46.873 20.0031 47.2246 20.1676 47.4621 20.4521C47.6995 20.7367 47.7985 21.112 47.7322 21.4767L44.8388 37.3906C44.7495 37.9935 44.2299 38.4561 43.6023 38.4561H24.7488H22.183C21.0496 38.4561 20.3612 38.707 19.9865 38.9904C19.6568 39.2398 19.4727 39.5826 19.4727 40.1066C19.4727 40.6305 19.6568 40.9734 19.9865 41.2227C20.3612 41.5061 21.0496 41.7571 22.183 41.7571H42.8772C42.8949 41.7571 42.9126 41.7575 42.9302 41.7582C44.7974 41.7866 46.3025 43.3092 46.3025 45.1832C46.3025 47.075 44.7688 48.6086 42.8771 48.6086C40.9853 48.6086 39.4517 47.075 39.4517 45.1832C39.4517 44.8623 39.4958 44.5517 39.5783 44.2571H31.6729C31.7554 44.5517 31.7995 44.8623 31.7995 45.1832C31.7995 47.075 30.2659 48.6086 28.3741 48.6086C26.4823 48.6086 24.9487 47.0749 24.9487 45.1832C24.9487 44.8623 24.9929 44.5517 25.0754 44.2571H22.183C20.7286 44.2571 19.4369 43.9416 18.4784 43.2167C17.4749 42.4576 16.9727 41.3502 16.9727 40.1066C16.9727 38.8629 17.4749 37.7555 18.4784 36.9965C19.4369 36.2716 20.7286 35.9561 22.183 35.9561H23.2506L20.6267 21.5243C20.4729 20.9779 19.6723 19.6025 17.4971 19.6025C16.8067 19.6025 16.2471 19.0429 16.2471 18.3525ZM23.3456 22.5031L25.7916 35.956H42.5586L45.0046 22.5031H23.3456ZM27.4487 45.1832C27.4487 44.6721 27.8631 44.2578 28.3741 44.2578C28.8852 44.2578 29.2995 44.6722 29.2995 45.1832C29.2995 45.6943 28.8852 46.1086 28.3741 46.1086C27.8631 46.1086 27.4487 45.6943 27.4487 45.1832ZM41.9517 45.1832C41.9517 44.6722 42.366 44.2578 42.8771 44.2578C43.3881 44.2578 43.8025 44.6722 43.8025 45.1832C43.8025 45.6943 43.3881 46.1086 42.8771 46.1086C42.366 46.1086 41.9517 45.6943 41.9517 45.1832Z" fill="#FFC93F" fill-opacity="0.5"/>
</svg>
